<?xml version="1.0" encoding="UTF-8"?>
<svg version="1.1" xmlns="http://www.w3.org/2000/svg" width="500" height="500">
<path d="M0 0 C165 0 330 0 500 0 C500 165 500 330 500 500 C335 500 170 500 0 500 C0 335 0 170 0 0 Z " fill="#FEFEFE" transform="translate(0,0)"/>
<path d="M0 0 C5.94 0 11.88 0 18 0 C18.01458252 1.49893799 18.02916504 2.99787598 18.04418945 4.54223633 C18.1020848 10.09423899 18.17931836 15.64583233 18.26245117 21.19750977 C18.29574176 23.60206467 18.32376067 26.00669851 18.34643555 28.41137695 C18.3799051 31.86443779 18.43221797 35.31677261 18.48828125 38.76953125 C18.49467117 39.84773636 18.5010611 40.92594147 18.50764465 42.03681946 C18.53733589 43.53803596 18.53733589 43.53803596 18.56762695 45.06958008 C18.57873001 45.95116287 18.58983307 46.83274567 18.60127258 47.74104309 C19.08193644 50.46420406 19.81042703 51.35623612 22 53 C24.5 53.66666667 24.5 53.66666667 27 53 C31.02887116 48.3917745 30.45772997 43.0500672 30.4765625 37.265625 C30.49214203 36.2318573 30.50772156 35.1980896 30.52377319 34.13299561 C30.57122974 30.83867101 30.59904724 27.54455825 30.625 24.25 C30.66144885 20.94130739 30.70199408 17.63273601 30.74765015 14.32415771 C30.77495292 12.2664906 30.79627082 10.20873412 30.81118774 8.15093994 C30.82658096 6.76379791 30.82658096 6.76379791 30.84228516 5.34863281 C30.84878082 4.5309845 30.85527649 3.71333618 30.86196899 2.87091064 C31 1 31 1 32 0 C34.86267567 -0.07325168 37.700719 -0.09238205 40.5625 -0.0625 C41.36880859 -0.05798828 42.17511719 -0.05347656 43.00585938 -0.04882812 C45.00393756 -0.03700518 47.00197783 -0.01906914 49 0 C49.06965599 10.03172633 49.12289034 20.06339467 49.15543652 30.09531403 C49.1710608 34.75405957 49.19223966 39.41263906 49.22631836 44.07128906 C49.25902763 48.57113771 49.27687735 53.07082712 49.28463173 57.57078552 C49.29015453 59.28350835 49.3009391 60.99622293 49.31719017 62.70887756 C49.33911868 65.11665358 49.34196057 67.52378007 49.34057617 69.93164062 C49.351362 70.63223602 49.36214783 71.33283142 49.3732605 72.05465698 C49.32864818 79.27335535 47.17593673 85.82406327 42 91 C33.10972763 97.14841266 22.26579589 97.3136414 11.8671875 95.43359375 C7.58501247 94.2128543 4.48958048 92.80581133 1 90 C1.54179211 85.44894625 2.62000841 81.93613994 5 78 C6.485 77.505 6.485 77.505 8 77 C8.804375 77.474375 9.60875 77.94875 10.4375 78.4375 C15.59860807 80.70114389 20.44691412 80.8353496 26 80 C28.95132461 78.14543211 28.95132461 78.14543211 30 75 C30.33465889 71.29059225 30.33465889 71.29059225 30 68 C29.45988281 68.32226562 28.91976562 68.64453125 28.36328125 68.9765625 C23.39386091 71.12860899 16.96606681 70.94228837 11.8359375 69.3125 C6.82113245 66.66150174 3.25125571 62.69321519 0.87548828 57.57958984 C-0.42650938 52.25614039 -0.24430748 47.06094125 -0.1953125 41.6015625 C-0.1924826 40.41146576 -0.18965271 39.22136902 -0.18673706 37.99520874 C-0.17556817 34.20503563 -0.15046917 30.41510134 -0.125 26.625 C-0.11496597 24.05078467 -0.10584085 21.47656562 -0.09765625 18.90234375 C-0.07563954 12.60147089 -0.04113191 6.3007759 0 0 Z " fill="#195EFF" transform="translate(197,210)"/>
<path d="M0 0 C1.1127832 -0.01836914 1.1127832 -0.01836914 2.24804688 -0.03710938 C4.18763629 -0.04238478 6.1267371 0.06561098 8.0625 0.1875 C10.56872199 2.69372199 10.3290861 3.53771151 10.38134766 7.00439453 C10.40121735 8.00528107 10.42108704 9.0061676 10.44155884 10.03738403 C10.45311005 11.12075043 10.46466125 12.20411682 10.4765625 13.3203125 C10.49592865 14.42728485 10.5152948 15.5342572 10.5352478 16.67477417 C10.59516754 20.22060369 10.64147873 23.76646545 10.6875 27.3125 C10.72566835 29.71225397 10.76471939 32.11199408 10.8046875 34.51171875 C10.90087916 40.40352302 10.98589015 46.29541036 11.0625 52.1875 C15.45586524 50.31887949 15.45586524 50.31887949 18.48828125 46.83984375 C20.32289111 41.22286642 21.56021629 36.00029639 21.88671875 30.0859375 C22.0625 28.1875 22.0625 28.1875 23.0625 27.1875 C24.39293625 27.0891279 25.72843344 27.05671408 27.0625 27.0546875 C27.866875 27.05339844 28.67125 27.05210937 29.5 27.05078125 C30.345625 27.05464844 31.19125 27.05851562 32.0625 27.0625 C33.3309375 27.05669922 33.3309375 27.05669922 34.625 27.05078125 C35.429375 27.05207031 36.23375 27.05335938 37.0625 27.0546875 C37.805 27.05581543 38.5475 27.05694336 39.3125 27.05810547 C41.0625 27.1875 41.0625 27.1875 42.0625 28.1875 C43.03506751 39.27476962 40.2905776 51.58233848 33.33203125 60.390625 C31.84377001 62.49708706 31.35707376 63.61353861 31.0625 66.1875 C32.03560318 69.32956298 32.03560318 69.32956298 33.58984375 72.7109375 C33.85761124 73.33473297 34.12537872 73.95852844 34.40126038 74.60122681 C35.25676503 76.59317735 36.12657774 78.57834648 37 80.5625 C38.14665724 83.16926168 39.27855121 85.781751 40.40234375 88.3984375 C40.91144287 89.55649902 41.42054199 90.71456055 41.94506836 91.90771484 C43.0625 95.1875 43.0625 95.1875 43.0625 101.1875 C37.1225 101.1875 31.1825 101.1875 25.0625 101.1875 C22.37408041 95.27297691 19.8183858 89.30621369 17.3125 83.3125 C16.99466553 82.56299072 16.67683105 81.81348145 16.34936523 81.04125977 C14.0625 75.5337208 14.0625 75.5337208 14.0625 72.1875 C12.7425 72.1875 11.4225 72.1875 10.0625 72.1875 C10.07035522 73.45194946 10.07035522 73.45194946 10.07836914 74.74194336 C10.09537826 77.85977936 10.10793406 80.97759177 10.11743164 84.09545898 C10.12247057 85.44670386 10.12930177 86.79794326 10.13793945 88.14916992 C10.15002419 90.08770434 10.15519828 92.026278 10.16015625 93.96484375 C10.16801147 95.71655884 10.16801147 95.71655884 10.17602539 97.50366211 C10.0625 100.1875 10.0625 100.1875 9.0625 101.1875 C6.21914952 101.28736975 3.40552837 101.32627881 0.5625 101.3125 C-0.23542969 101.31636719 -1.03335938 101.32023437 -1.85546875 101.32421875 C-7.81089233 101.31410767 -7.81089233 101.31410767 -8.9375 100.1875 C-9.03815628 97.11831812 -9.07364443 94.07159724 -9.06689453 91.00195312 C-9.06864685 90.03780991 -9.07039917 89.07366669 -9.07220459 88.08030701 C-9.07662493 84.87643664 -9.07368447 81.67262098 -9.0703125 78.46875 C-9.07098549 76.25297027 -9.07195547 74.03719061 -9.07321167 71.82141113 C-9.07468889 67.17080993 -9.07253331 62.52022789 -9.06787109 57.86962891 C-9.0621738 51.89367396 -9.06545267 45.91776391 -9.07144356 39.94181061 C-9.07504852 35.36435606 -9.07391088 30.78691225 -9.07131577 26.2094574 C-9.07064632 24.00532526 -9.07147554 21.80119217 -9.07379532 19.59706116 C-9.07632078 16.52236328 -9.07248275 13.44773922 -9.06689453 10.37304688 C-9.06891876 9.45249008 -9.07094299 8.53193329 -9.07302856 7.58348083 C-9.04519252 -0.63884012 -7.59438287 0.00656386 0 0 Z " fill="#1D60FF" transform="translate(146.9375,182.8125)"/>
<path d="M0 0 C7.00603303 4.35691882 10.32472677 9.52543879 13.03515625 17.265625 C13.52771345 21.33154525 13.58001783 25.20330261 13.03515625 29.265625 C12.03515625 30.265625 12.03515625 30.265625 8.21875 30.36328125 C6.63668943 30.35660589 5.05464466 30.34464375 3.47265625 30.328125 C2.66634766 30.32361328 1.86003906 30.31910156 1.02929688 30.31445312 C-0.96878131 30.30263018 -2.96682158 30.28469414 -4.96484375 30.265625 C-4.97902344 29.60175781 -4.99320313 28.93789062 -5.0078125 28.25390625 C-5.25517477 23.67436156 -5.508399 20.9307302 -8.15234375 17.078125 C-10.8451836 14.99458337 -10.8451836 14.99458337 -14.08984375 15.203125 C-17.46032476 16.44873755 -18.46118006 17.00768701 -19.96484375 20.265625 C-20.62588447 24.2318693 -20.87543693 26.65229144 -18.88671875 30.17578125 C-14.68938515 35.33765364 -9.33877626 39.22772608 -4.10131836 43.2644043 C4.05980442 49.55793814 12.10947339 56.56738688 14.03515625 67.265625 C14.66045112 75.49696561 14.97250678 83.3090779 10.03515625 90.265625 C4.80703747 96.06078486 -0.60126927 99.91907714 -8.45703125 100.54296875 C-17.73105922 100.7725239 -24.66226451 100.48525441 -31.71484375 94.203125 C-38.08108305 87.23959551 -39.42618894 79.85278138 -39.203125 70.63671875 C-38.96484375 68.265625 -38.96484375 68.265625 -37.96484375 67.265625 C-35.28752995 67.16581286 -32.641802 67.12682625 -29.96484375 67.140625 C-29.21460937 67.13675781 -28.464375 67.13289063 -27.69140625 67.12890625 C-22.09145428 67.13901447 -22.09145428 67.13901447 -20.96484375 68.265625 C-20.46842418 71.03654876 -20.06442382 73.8157914 -19.66015625 76.6015625 C-18.91537045 79.45518 -18.33509919 80.55536805 -15.96484375 82.265625 C-12.42189518 82.56715254 -9.36039409 82.31040972 -5.96484375 81.265625 C-4.59460999 76.98364449 -3.84131334 72.6121133 -5.84765625 68.421875 C-11.12451166 60.71197848 -19.21405476 55.10571962 -26.41015625 49.2890625 C-32.96889726 43.82760136 -37.39746338 37.81497249 -38.96484375 29.265625 C-39.77272311 20.391381 -38.9530736 13.47305465 -33.45703125 6.296875 C-24.53362489 -3.49811989 -11.94826197 -5.80146824 0 0 Z " fill="#1B5FFF" transform="translate(117.96484375,184.734375)"/>
<path d="M0 0 C4.85274457 3.70910413 7.36173712 7.9592524 9.08984375 13.78125 C9.53792384 17.98768802 9.47223546 22.11994537 9.33984375 26.34375 C9.32179688 27.44783203 9.30375 28.55191406 9.28515625 29.68945312 C9.23843423 32.38764981 9.17294515 35.08397035 9.08984375 37.78125 C6.27160183 39.19037096 3.91733093 38.89308553 0.76953125 38.87890625 C-0.48730469 38.87568359 -1.74414062 38.87246094 -3.0390625 38.86914062 C-4.35777344 38.86076172 -5.67648437 38.85238281 -7.03515625 38.84375 C-8.37499836 38.83873489 -9.71484225 38.83417201 -11.0546875 38.83007812 C-14.33988831 38.81826086 -17.62500022 38.80178617 -20.91015625 38.78125 C-20.82314827 41.22047361 -20.71629623 43.65603414 -20.59765625 46.09375 C-20.57509766 46.78404297 -20.55253906 47.47433594 -20.52929688 48.18554688 C-20.31715992 52.21324599 -20.31715992 52.21324599 -18.5234375 55.73828125 C-16.17983508 57.25339468 -14.63981913 57.19069943 -11.91015625 56.78125 C-8.01330329 54.32767592 -8.28497863 51.59312833 -6.91015625 46.78125 C-1.96015625 46.78125 2.98984375 46.78125 8.08984375 46.78125 C8.35611241 53.26045406 8.5349188 58.07534445 5.08984375 63.78125 C0.07664267 69.20391784 -4.52401115 72.25246347 -11.98828125 73.15234375 C-20.5008585 73.33056273 -26.9444532 72.02902008 -33.53125 66.39453125 C-39.31220458 60.13325997 -40.37319997 52.64267004 -40.34375 44.53125 C-40.34899185 43.67370117 -40.3542337 42.81615234 -40.3596344 41.93261719 C-40.36601914 40.13087032 -40.36476395 38.32908158 -40.35620117 36.52734375 C-40.34767819 33.78830094 -40.3765218 31.05133817 -40.40820312 28.3125 C-40.40981526 26.55208395 -40.40923736 24.79166425 -40.40625 23.03125 C-40.41748398 22.22268555 -40.42871796 21.41412109 -40.44029236 20.58105469 C-40.35889287 13.86146827 -38.39195893 8.72708722 -34.05078125 3.57421875 C-23.85683803 -5.08220824 -11.75457521 -7.49985167 0 0 Z " fill="#1C60FF" transform="translate(356.91015625,212.21875)"/>
<path d="M0 0 C5.94 0 11.88 0 18 0 C18.01458252 1.65040283 18.02916504 3.30080566 18.04418945 5.0012207 C18.10206999 11.1122833 18.17930374 17.22297345 18.26245117 23.33374023 C18.29574872 25.98081426 18.32376542 28.62796011 18.34643555 31.27514648 C18.37989211 35.0756701 18.43220486 38.87553255 18.48828125 42.67578125 C18.49467117 43.86335526 18.5010611 45.05092926 18.50764465 46.27449036 C18.53733589 47.9258625 18.53733589 47.9258625 18.56762695 49.6105957 C18.57873001 50.58100296 18.58983307 51.55141022 18.60127258 52.55122375 C18.81510258 55.03753918 18.81510258 55.03753918 20.33561707 56.81340027 C22.91434436 58.65186968 24.93549789 58.39121304 28 58 C30.21372321 54.67941518 30.26093646 53.5915941 30.30297852 49.71826172 C30.31962051 48.6405954 30.33626251 47.56292908 30.35340881 46.4526062 C30.36182297 45.29004303 30.37023712 44.12747986 30.37890625 42.9296875 C30.39590073 41.73771759 30.4128952 40.54574768 30.43040466 39.31765747 C30.48362681 35.50349236 30.52388168 31.6893388 30.5625 27.875 C30.60635556 24.05357541 30.65298912 20.23223751 30.70530701 16.41091919 C30.73738647 14.0305123 30.76423769 11.65002848 30.78553772 9.26950073 C30.79902756 8.19813873 30.8125174 7.12677673 30.82641602 6.02294922 C30.83592789 5.07491425 30.84543976 4.12687927 30.85523987 3.15011597 C31 1 31 1 32 0 C34.84335048 -0.09986975 37.65697163 -0.13877881 40.5 -0.125 C41.69689453 -0.13080078 41.69689453 -0.13080078 42.91796875 -0.13671875 C48.87339233 -0.12660767 48.87339233 -0.12660767 50 1 C50.11445246 2.6650015 50.15961162 4.33482211 50.17700195 6.00366211 C50.19625481 7.60684547 50.19625481 7.60684547 50.21589661 9.24241638 C50.22328354 10.40894241 50.23067047 11.57546844 50.23828125 12.77734375 C50.246353 13.97299454 50.25442474 15.16864532 50.26274109 16.40052795 C50.27660865 18.94188985 50.28731877 21.48327059 50.29516602 24.0246582 C50.31228893 27.8898538 50.35614189 31.75417426 50.40039062 35.61914062 C50.41052502 38.08853537 50.41903878 40.55793741 50.42578125 43.02734375 C50.44328934 44.1756517 50.46079742 45.32395966 50.47883606 46.50706482 C50.45809208 54.28655712 49.62115519 61.80045955 44.35493469 67.90782166 C38.35424604 73.62713443 32.14073754 75.1681693 24 75.4375 C16.78563232 75.2450142 12.2729374 74.11677339 7.03515625 69.12890625 C2.10677773 63.79738839 -0.25926466 59.50123972 -0.22705078 52.1081543 C-0.22689972 50.94732834 -0.22674866 49.78650238 -0.22659302 48.59049988 C-0.21627045 47.34762711 -0.20594788 46.10475433 -0.1953125 44.82421875 C-0.1924826 43.54392288 -0.18965271 42.26362701 -0.18673706 40.9445343 C-0.1791278 37.55296925 -0.15950293 34.1615775 -0.1373291 30.77008057 C-0.11681206 27.30442651 -0.10772286 23.83874425 -0.09765625 20.37304688 C-0.07561488 13.58194664 -0.04109442 6.79101059 0 0 Z " fill="#1B5FFF" transform="translate(377,210)"/>
<path d="M0 0 C5.05177638 3.14100086 8.98501415 7.91593718 11.26171875 13.40625 C11.50895691 16.1204071 11.50895691 16.1204071 11.50463867 19.26049805 C11.50925362 21.02703987 11.50925362 21.02703987 11.51396179 22.82926941 C11.50677628 24.09604019 11.49959076 25.36281097 11.4921875 26.66796875 C11.49172928 27.96950394 11.49127106 29.27103912 11.49079895 30.61201477 C11.48923741 33.36159632 11.4809705 36.11104705 11.4675293 38.8605957 C11.45048965 42.39157703 11.44671656 45.9224154 11.44747448 49.45343304 C11.447138 52.81663091 11.43830715 56.17978147 11.4296875 59.54296875 C11.42857468 60.81581223 11.42746185 62.0886557 11.42631531 63.40007019 C11.41993546 64.56830826 11.4135556 65.73654633 11.40698242 66.94018555 C11.40126472 68.49095039 11.40126472 68.49095039 11.39543152 70.07304382 C11.26171875 72.40625 11.26171875 72.40625 10.26171875 73.40625 C7.58440495 73.50606214 4.938677 73.54504875 2.26171875 73.53125 C1.13636719 73.53705078 1.13636719 73.53705078 -0.01171875 73.54296875 C-5.61167072 73.53286053 -5.61167072 73.53286053 -6.73828125 72.40625 C-6.82528467 70.77152118 -6.84529188 69.13310945 -6.8359375 67.49609375 C-6.83271484 66.50673828 -6.82949219 65.51738281 -6.82617188 64.49804688 C-6.81779297 63.45712891 -6.80941406 62.41621094 -6.80078125 61.34375 C-6.79626953 60.29896484 -6.79175781 59.25417969 -6.78710938 58.17773438 C-6.77528038 55.5871834 -6.75879814 52.99674441 -6.73828125 50.40625 C-4.96716281 50.88436177 -3.19639642 51.3637778 -1.42578125 51.84375 C-0.43964844 52.11058594 0.54648437 52.37742187 1.5625 52.65234375 C3.47689401 53.18704425 5.3760549 53.77769538 7.26171875 54.40625 C7.84179549 52.0510372 7.84179549 52.0510372 7.26171875 49.40625 C4.45819384 47.82109028 4.45819384 47.82109028 2.33300781 46.93383789 C-1.30210149 45.30051277 -4.31497642 43.63704389 -6.73828125 40.40625 C-8.6025107 33.68228777 -8.08601407 26.503235 -7.64160156 19.60180664 C-7.50001953 17.19430141 -7.50001953 17.19430141 -9.73828125 15.40625 C-13.23828125 15.07291667 -13.23828125 15.07291667 -16.73828125 15.40625 C-18.97527683 17.19641116 -18.97527683 17.19641116 -18.85083008 19.61767578 C-18.79950928 20.5198584 -18.74818848 21.42204102 -18.6953125 22.3515625 C-18.24012643 38.22633776 -18.24012643 38.22633776 -21.02050781 42.27197266 C-24.7070642 45.57727749 -29.70459732 48.40625 -34.73828125 48.40625 C-34.73828125 50.38625 -34.73828125 52.36625 -34.73828125 54.40625 C-29.78828125 52.75625 -24.83828125 51.10625 -19.73828125 49.40625 C-19.71145333 53.21879623 -19.69152648 57.03115612 -19.67578125 60.84375 C-19.66740234 61.93236328 -19.65902344 63.02097656 -19.65039062 64.14257812 C-19.64555664 65.69428711 -19.64555664 65.69428711 -19.640625 67.27734375 C-19.63276978 68.71484985 -19.63276978 68.71484985 -19.62475586 70.18139648 C-19.73828125 72.40625 -19.73828125 72.40625 -20.73828125 73.40625 C-23.60095692 73.47950168 -26.43900025 73.49863205 -29.30078125 73.46875 C-30.10708984 73.46423828 -30.91339844 73.45972656 -31.74414062 73.45507812 C-33.74221881 73.44325518 -35.74025908 73.42531914 -37.73828125 73.40625 C-37.85453824 65.72158361 -37.94317942 58.03700932 -37.99734211 50.35166168 C-38.02334852 46.78230043 -38.05857853 43.21354431 -38.11547852 39.64453125 C-38.17012409 36.19502383 -38.19976903 32.74609547 -38.21266747 29.29618835 C-38.2262943 27.35078817 -38.26527573 25.4056184 -38.30476379 23.46057129 C-38.30707504 16.11267304 -37.67550338 11.04159787 -32.73828125 5.40625 C-30.67578125 3.3828125 -30.67578125 3.3828125 -28.73828125 2.03125 C-28.09890625 1.56976563 -27.45953125 1.10828125 -26.80078125 0.6328125 C-18.43956221 -4.33957913 -8.75006405 -3.94527848 0 0 Z " fill="#1A5FFF" transform="translate(292.73828125,210.59375)"/>
<path d="M0 0 C41.91 0 83.82 0 127 0 C127 2.64 127 5.28 127 8 C85.09 8 43.18 8 0 8 C0 5.36 0 2.72 0 0 Z " fill="#18CB96" transform="translate(297,299)"/>
<path d="M0 0 C3.04424687 4.56637031 2.12783166 8.56715459 2 14 C-2.29 14 -6.58 14 -11 14 C-11.48330404 3.85061511 -11.48330404 3.85061511 -9.4375 0.25 C-5.92821869 -1.54963144 -3.73588519 -1.03774589 0 0 Z " fill="#F2F6FF" transform="translate(347,225)"/>
<path d="M0 0 C2.375 1 2.375 1 4 3 C4.56669256 5.77563703 4.559876 8.22370769 4 11 C2.4375 13.0625 2.4375 13.0625 0 14 C-6.32727273 13.67272727 -6.32727273 13.67272727 -9 11 C-9.55641422 3.98918083 -9.55641422 3.98918083 -7.875 1 C-5.08970454 -0.48549091 -3.10747489 -0.38050713 0 0 Z " fill="#1D61FF" transform="translate(282,294)"/>
</svg>
